<svg width="44" height="44" viewBox="0 0 44 44" fill="none" xmlns="http://www.w3.org/2000/svg">
<g clip-path="url(#clip0_7629_124483)">
<path d="M44 0H0V44H44V0Z" fill="#FF0032"/>
<path d="M29.3125 3.38477V5.40972H33.7404V13.5365H36.2153V5.40972H40.6342V3.38477H29.3125Z" fill="white"/>
<path d="M13.3906 3.38477L10.1507 10.0986L6.91973 3.38477H3.38281V13.5365H5.86676V6.2737L9.02568 12.4116H11.2846L14.4436 6.2737V13.5365H16.9185V3.38477H13.3906Z" fill="white"/>
<path d="M38.1581 37.2331C38.0951 37.6381 37.9331 37.9711 37.6721 38.2231C37.4291 38.457 37.0961 38.628 36.6821 38.727C36.2772 38.817 35.6742 38.871 35.0442 38.871C34.3872 38.871 33.8112 38.79 33.3162 38.619C32.8392 38.457 32.4612 38.1691 32.2002 37.7731C31.9303 37.3771 31.7953 36.8011 31.7953 36.0541V35.0191C31.7953 34.2811 31.9303 33.7052 32.2002 33.3002C32.4702 32.9042 32.8392 32.6162 33.3162 32.4542C33.8022 32.2832 34.3872 32.2022 35.0442 32.2022C35.6742 32.2022 36.2772 32.2562 36.6821 32.3462C37.0961 32.4452 37.4291 32.6072 37.6721 32.8502C37.9331 33.1022 38.0951 33.4352 38.1581 33.8402H40.6331C40.5611 33.0032 40.2821 32.2922 39.7871 31.7162C39.3371 31.1942 38.7071 30.8162 37.9241 30.5822C37.1681 30.3572 36.1692 30.2402 35.0442 30.2402C33.8562 30.2402 32.8302 30.4112 31.9843 30.7442C31.1293 31.0862 30.4633 31.6532 30.0043 32.4362C29.5633 33.1832 29.3383 34.1911 29.3203 35.4151V35.5321L29.4553 35.5411L29.3203 35.5501V35.5591V35.6671C29.3383 36.8911 29.5633 37.8991 30.0043 38.646C30.4633 39.429 31.1293 39.996 31.9843 40.338C32.8302 40.671 33.8562 40.842 35.0442 40.842C36.1692 40.842 37.1681 40.725 37.9241 40.5C38.7071 40.266 39.3281 39.888 39.7871 39.366C40.2821 38.799 40.5701 38.0791 40.6331 37.2421H38.1581V37.2331Z" fill="white"/>
<path d="M44 0H0V44H44V0Z" fill="#FF0032"/>
<path d="M29.3125 3.38477V5.40972H33.7404V13.5365H36.2153V5.40972H40.6342V3.38477H29.3125Z" fill="white"/>
<path d="M13.3906 3.38477L10.1507 10.0986L6.91973 3.38477H3.38281V13.5365H5.86676V6.2737L9.02568 12.4116H11.2846L14.4436 6.2737V13.5365H16.9185V3.38477H13.3906Z" fill="white"/>
<path d="M38.1581 37.2331C38.0951 37.6381 37.9331 37.9711 37.6721 38.2231C37.4291 38.457 37.0961 38.628 36.6821 38.727C36.2772 38.817 35.6742 38.871 35.0442 38.871C34.3872 38.871 33.8112 38.79 33.3162 38.619C32.8392 38.457 32.4612 38.1691 32.2002 37.7731C31.9303 37.3771 31.7953 36.8011 31.7953 36.0541V35.0191C31.7953 34.2811 31.9303 33.7052 32.2002 33.3002C32.4702 32.9042 32.8392 32.6162 33.3162 32.4542C33.8022 32.2832 34.3872 32.2022 35.0442 32.2022C35.6742 32.2022 36.2772 32.2562 36.6821 32.3462C37.0961 32.4452 37.4291 32.6072 37.6721 32.8502C37.9331 33.1022 38.0951 33.4352 38.1581 33.8402H40.6331C40.5611 33.0032 40.2821 32.2922 39.7871 31.7162C39.3371 31.1942 38.7071 30.8162 37.9241 30.5822C37.1681 30.3572 36.1692 30.2402 35.0442 30.2402C33.8562 30.2402 32.8302 30.4112 31.9843 30.7442C31.1293 31.0862 30.4633 31.6532 30.0043 32.4362C29.5633 33.1832 29.3383 34.1911 29.3203 35.4151V35.5321L29.4553 35.5411L29.3203 35.5501V35.5591V35.6671C29.3383 36.8911 29.5633 37.8991 30.0043 38.646C30.4633 39.429 31.1293 39.996 31.9843 40.338C32.8302 40.671 33.8562 40.842 35.0442 40.842C36.1692 40.842 37.1681 40.725 37.9241 40.5C38.7071 40.266 39.3281 39.888 39.7871 39.366C40.2821 38.799 40.5701 38.0791 40.6331 37.2421H38.1581V37.2331Z" fill="white"/>
</g>
<defs>
<clipPath id="clip0_7629_124483">
<rect width="44" height="44" fill="white"/>
</clipPath>
</defs>
</svg>
